<svg width="210" height="202" viewBox="0 0 210 202" fill="none" xmlns="http://www.w3.org/2000/svg">
<g clip-path="url(#clip0_108_1516)">
<rect width="210" height="202" fill="white"/>
<path d="M166.333 67.6667C166.333 113.667 105 159.667 105 159.667C105 159.667 43.6666 113.667 43.6666 67.6667C43.6666 51.4001 50.1285 35.7997 61.6307 24.2975C73.133 12.7952 88.7333 6.33333 105 6.33333C121.267 6.33333 136.867 12.7952 148.369 24.2975C159.871 35.7997 166.333 51.4001 166.333 67.6667Z" fill="#932F67" stroke="#932F67" stroke-width="2" stroke-linecap="round" stroke-linejoin="round"/>
<path d="M105 90.6667C117.703 90.6667 128 80.3692 128 67.6667C128 54.9641 117.703 44.6667 105 44.6667C92.2975 44.6667 82 54.9641 82 67.6667C82 80.3692 92.2975 90.6667 105 90.6667Z" fill="white" stroke="white" stroke-width="2" stroke-linecap="round" stroke-linejoin="round"/>
<path d="M117.342 183.49C117.342 190.496 111.656 196.175 104.641 196.175C97.6267 196.175 91.9403 190.496 91.9403 183.49L91.9402 92.26H40.1382C33.9867 92.26 29 87.2795 29 81.1358C29 74.9921 33.9867 77.5116 40.1382 77.5116H168.862C175.013 77.5116 180 74.9921 180 81.1358C180 87.2795 175.013 92.26 168.862 92.26H117.342L117.342 183.49Z" fill="white"/>
<path d="M115.685 183.607C115.685 191.986 104.5 200.364 104.5 200.364C104.5 200.364 93.3149 191.986 93.3149 183.607C93.3149 180.645 94.4933 177.803 96.5909 175.708C98.6886 173.613 101.534 172.436 104.5 172.436C107.467 172.436 110.312 173.613 112.409 175.708C114.507 177.803 115.685 180.645 115.685 183.607Z" fill="white"/>
<path d="M105.338 201.481C104.841 201.853 104.159 201.853 103.662 201.481L104.5 200.364L105.338 201.481ZM114.287 183.607C114.287 181.015 113.257 178.528 111.421 176.695C109.7 174.976 107.404 173.965 104.985 173.845L104.5 173.833C101.904 173.833 99.4144 174.862 97.5789 176.695C95.7435 178.528 94.713 181.015 94.713 183.607C94.713 187.245 97.1879 191.095 99.952 194.2C101.301 195.716 102.655 196.983 103.673 197.873C103.984 198.145 104.264 198.379 104.5 198.575C104.737 198.379 105.017 198.145 105.327 197.873C106.345 196.983 107.699 195.716 109.048 194.2C111.812 191.095 114.287 187.245 114.287 183.607ZM117.083 183.607C117.083 188.348 113.966 192.877 111.137 196.055C109.69 197.681 108.247 199.032 107.168 199.976C106.628 200.448 106.175 200.82 105.856 201.076C105.696 201.204 105.57 201.304 105.482 201.372C105.438 201.406 105.403 201.433 105.379 201.451C105.367 201.46 105.357 201.467 105.351 201.472C105.347 201.474 105.345 201.477 105.342 201.478L105.338 201.481C105.338 201.481 105.339 201.481 104.5 200.364C103.661 201.481 103.662 201.481 103.662 201.481L103.658 201.478C103.656 201.477 103.653 201.474 103.649 201.472C103.643 201.467 103.633 201.46 103.621 201.451C103.597 201.433 103.562 201.406 103.518 201.372C103.43 201.304 103.304 201.204 103.144 201.076C102.825 200.82 102.373 200.448 101.832 199.976C100.753 199.032 99.31 197.681 97.8629 196.055C95.0344 192.877 91.9167 188.348 91.9167 183.607C91.9167 180.274 93.242 177.077 95.6019 174.72C97.9617 172.363 101.163 171.04 104.5 171.04C107.837 171.04 111.038 172.363 113.398 174.72C115.758 177.077 117.083 180.274 117.083 183.607Z" fill="white"/>
<path d="M104.5 187.797C106.817 187.797 108.694 185.921 108.694 183.607C108.694 181.294 106.817 179.418 104.5 179.418C102.184 179.418 100.306 181.294 100.306 183.607C100.306 185.921 102.184 187.797 104.5 187.797Z" fill="white"/>
<path d="M107.296 183.607C107.296 182.065 106.044 180.815 104.5 180.815C102.956 180.815 101.704 182.065 101.704 183.607C101.704 185.15 102.956 186.4 104.5 186.4C106.044 186.4 107.296 185.15 107.296 183.607ZM110.093 183.607C110.093 186.692 107.589 189.193 104.5 189.193C101.411 189.193 98.9075 186.692 98.9075 183.607C98.9075 180.523 101.411 178.022 104.5 178.022C107.589 178.022 110.093 180.523 110.093 183.607Z" fill="white"/>
<path d="M73.7408 116.021C73.7408 114.093 75.3057 112.53 77.2362 112.53H107.995C109.926 112.53 111.491 114.093 111.491 116.021C111.491 117.949 109.926 119.512 107.995 119.512H77.2362C75.3057 119.512 73.7408 117.949 73.7408 116.021Z" fill="white"/>
<path d="M104.5 125.948C104.5 124.02 106.065 122.457 107.995 122.457H138.755C140.685 122.457 142.25 124.02 142.25 125.948C142.25 127.876 140.685 129.439 138.755 129.439H107.995C106.065 129.439 104.5 127.876 104.5 125.948Z" fill="white"/>
<path d="M58.3612 105.003C58.3612 103.075 59.9261 101.512 61.8565 101.512H95.4121C97.3425 101.512 98.9075 103.075 98.9075 105.003C98.9075 106.931 97.3425 108.494 95.4121 108.494H61.8565C59.9261 108.494 58.3612 106.931 58.3612 105.003Z" fill="white"/>
<path d="M66.6133 170.152C66.6133 170.492 66.5957 170.785 66.5605 171.031C66.5371 171.266 66.4961 171.459 66.4375 171.611C66.3789 171.752 66.3027 171.857 66.209 171.928C66.127 171.998 66.0332 172.033 65.9277 172.033H60.2324V190.367C60.2324 190.484 60.1914 190.59 60.1094 190.684C60.0391 190.777 59.916 190.854 59.7402 190.912C59.5645 190.971 59.3242 191.018 59.0195 191.053C58.7266 191.088 58.3574 191.105 57.9121 191.105C57.4668 191.105 57.0918 191.088 56.7871 191.053C56.4941 191.018 56.2598 190.971 56.084 190.912C55.9082 190.854 55.7793 190.777 55.6973 190.684C55.627 190.59 55.5918 190.484 55.5918 190.367V172.033H49.8965C49.7793 172.033 49.6797 171.998 49.5977 171.928C49.5156 171.857 49.4453 171.752 49.3867 171.611C49.3281 171.459 49.2812 171.266 49.2461 171.031C49.2227 170.785 49.2109 170.492 49.2109 170.152C49.2109 169.801 49.2227 169.502 49.2461 169.256C49.2812 169.01 49.3281 168.816 49.3867 168.676C49.4453 168.523 49.5156 168.418 49.5977 168.359C49.6797 168.289 49.7793 168.254 49.8965 168.254H65.9277C66.0332 168.254 66.127 168.289 66.209 168.359C66.3027 168.418 66.3789 168.523 66.4375 168.676C66.4961 168.816 66.5371 169.01 66.5605 169.256C66.5957 169.502 66.6133 169.801 66.6133 170.152ZM86.1777 190.402C86.1777 190.531 86.1543 190.643 86.1074 190.736C86.0605 190.818 85.9492 190.889 85.7734 190.947C85.5977 191.006 85.3398 191.047 85 191.07C84.6602 191.094 84.1973 191.105 83.6113 191.105C83.1191 191.105 82.7266 191.094 82.4336 191.07C82.1406 191.047 81.9062 191.006 81.7305 190.947C81.5664 190.877 81.4492 190.795 81.3789 190.701C81.3086 190.596 81.25 190.473 81.2031 190.332L79.1641 185.252C78.918 184.678 78.6777 184.168 78.4434 183.723C78.209 183.277 77.9453 182.908 77.6523 182.615C77.3711 182.311 77.043 182.082 76.668 181.93C76.293 181.777 75.8594 181.701 75.3672 181.701H73.9258V190.367C73.9258 190.484 73.8848 190.59 73.8027 190.684C73.7324 190.777 73.6094 190.854 73.4336 190.912C73.2578 190.971 73.0234 191.018 72.7305 191.053C72.4375 191.088 72.0625 191.105 71.6055 191.105C71.1602 191.105 70.7852 191.088 70.4805 191.053C70.1875 191.018 69.9531 190.971 69.7773 190.912C69.6016 190.854 69.4785 190.777 69.4082 190.684C69.3379 190.59 69.3027 190.484 69.3027 190.367V169.713C69.3027 169.197 69.4316 168.828 69.6895 168.605C69.959 168.371 70.2871 168.254 70.6738 168.254H76.5625C77.1602 168.254 77.6523 168.266 78.0391 168.289C78.4258 168.312 78.7773 168.342 79.0938 168.377C80.0078 168.506 80.8281 168.729 81.5547 169.045C82.293 169.361 82.9141 169.777 83.418 170.293C83.9336 170.797 84.3262 171.4 84.5957 172.104C84.8652 172.795 85 173.592 85 174.494C85 175.256 84.9004 175.953 84.7012 176.586C84.5137 177.207 84.2324 177.764 83.8574 178.256C83.4824 178.748 83.0195 179.176 82.4688 179.539C81.918 179.902 81.291 180.195 80.5879 180.418C80.9277 180.582 81.2441 180.781 81.5371 181.016C81.8418 181.25 82.123 181.537 82.3809 181.877C82.6504 182.205 82.9023 182.586 83.1367 183.02C83.3711 183.441 83.5996 183.922 83.8223 184.461L85.7383 188.943C85.9141 189.389 86.0312 189.717 86.0898 189.928C86.1484 190.127 86.1777 190.285 86.1777 190.402ZM80.2188 174.969C80.2188 174.219 80.0488 173.586 79.709 173.07C79.3691 172.555 78.8125 172.191 78.0391 171.98C77.8047 171.922 77.5352 171.875 77.2305 171.84C76.9375 171.805 76.5273 171.787 76 171.787H73.9258V178.238H76.2812C76.9375 178.238 77.5117 178.162 78.0039 178.01C78.4961 177.846 78.9062 177.623 79.2344 177.342C79.5625 177.049 79.8086 176.703 79.9727 176.305C80.1367 175.906 80.2188 175.461 80.2188 174.969ZM94.2285 190.367C94.2285 190.484 94.1875 190.59 94.1055 190.684C94.0352 190.777 93.9121 190.854 93.7363 190.912C93.5605 190.971 93.3262 191.018 93.0332 191.053C92.7402 191.088 92.3652 191.105 91.9082 191.105C91.4629 191.105 91.0879 191.088 90.7832 191.053C90.4902 191.018 90.2559 190.971 90.0801 190.912C89.9043 190.854 89.7754 190.777 89.6934 190.684C89.623 190.59 89.5879 190.484 89.5879 190.367V168.887C89.5879 168.77 89.623 168.664 89.6934 168.57C89.7754 168.477 89.9043 168.4 90.0801 168.342C90.2676 168.283 90.5078 168.236 90.8008 168.201C91.0938 168.166 91.4629 168.148 91.9082 168.148C92.3652 168.148 92.7402 168.166 93.0332 168.201C93.3262 168.236 93.5605 168.283 93.7363 168.342C93.9121 168.4 94.0352 168.477 94.1055 168.57C94.1875 168.664 94.2285 168.77 94.2285 168.887V190.367ZM114.76 175.162C114.76 176.439 114.561 177.57 114.162 178.555C113.764 179.539 113.184 180.371 112.422 181.051C111.66 181.719 110.723 182.229 109.609 182.58C108.508 182.932 107.207 183.107 105.707 183.107H103.809V190.367C103.809 190.484 103.768 190.59 103.686 190.684C103.615 190.777 103.492 190.854 103.316 190.912C103.141 190.971 102.906 191.018 102.613 191.053C102.32 191.088 101.945 191.105 101.488 191.105C101.043 191.105 100.668 191.088 100.363 191.053C100.07 191.018 99.8359 190.971 99.6602 190.912C99.4844 190.854 99.3613 190.777 99.291 190.684C99.2207 190.59 99.1855 190.484 99.1855 190.367V169.906C99.1855 169.355 99.3262 168.945 99.6074 168.676C99.9004 168.395 100.281 168.254 100.75 168.254H106.111C106.65 168.254 107.16 168.277 107.641 168.324C108.133 168.359 108.719 168.447 109.398 168.588C110.078 168.717 110.764 168.963 111.455 169.326C112.158 169.689 112.756 170.152 113.248 170.715C113.74 171.266 114.115 171.916 114.373 172.666C114.631 173.404 114.76 174.236 114.76 175.162ZM109.926 175.496C109.926 174.699 109.785 174.043 109.504 173.527C109.223 173.012 108.877 172.631 108.467 172.385C108.057 172.139 107.623 171.986 107.166 171.928C106.721 171.857 106.258 171.822 105.777 171.822H103.809V179.539H105.883C106.621 179.539 107.236 179.439 107.729 179.24C108.232 179.041 108.643 178.766 108.959 178.414C109.275 178.051 109.516 177.623 109.68 177.131C109.844 176.627 109.926 176.082 109.926 175.496ZM122.986 190.367C122.986 190.484 122.945 190.59 122.863 190.684C122.793 190.777 122.67 190.854 122.494 190.912C122.318 190.971 122.084 191.018 121.791 191.053C121.498 191.088 121.123 191.105 120.666 191.105C120.221 191.105 119.846 191.088 119.541 191.053C119.248 191.018 119.014 190.971 118.838 190.912C118.662 190.854 118.533 190.777 118.451 190.684C118.381 190.59 118.346 190.484 118.346 190.367V168.887C118.346 168.77 118.381 168.664 118.451 168.57C118.533 168.477 118.662 168.4 118.838 168.342C119.025 168.283 119.266 168.236 119.559 168.201C119.852 168.166 120.221 168.148 120.666 168.148C121.123 168.148 121.498 168.166 121.791 168.201C122.084 168.236 122.318 168.283 122.494 168.342C122.67 168.4 122.793 168.477 122.863 168.57C122.945 168.664 122.986 168.77 122.986 168.887V190.367ZM140.705 170.152C140.705 170.504 140.688 170.803 140.652 171.049C140.629 171.283 140.582 171.471 140.512 171.611C140.453 171.752 140.383 171.857 140.301 171.928C140.219 171.998 140.125 172.033 140.02 172.033H132.584V178.15H139.562C139.668 178.15 139.762 178.18 139.844 178.238C139.926 178.297 139.996 178.396 140.055 178.537C140.125 178.678 140.172 178.865 140.195 179.1C140.23 179.334 140.248 179.627 140.248 179.979C140.248 180.33 140.23 180.623 140.195 180.857C140.172 181.092 140.125 181.285 140.055 181.438C139.996 181.59 139.926 181.701 139.844 181.771C139.762 181.83 139.668 181.859 139.562 181.859H132.584V190.332C132.584 190.461 132.549 190.572 132.479 190.666C132.408 190.76 132.279 190.842 132.092 190.912C131.916 190.971 131.682 191.018 131.389 191.053C131.096 191.088 130.721 191.105 130.264 191.105C129.818 191.105 129.443 191.088 129.139 191.053C128.846 191.018 128.611 190.971 128.436 190.912C128.26 190.842 128.131 190.76 128.049 190.666C127.979 190.572 127.943 190.461 127.943 190.332V169.713C127.943 169.197 128.072 168.828 128.33 168.605C128.6 168.371 128.928 168.254 129.314 168.254H140.02C140.125 168.254 140.219 168.289 140.301 168.359C140.383 168.418 140.453 168.523 140.512 168.676C140.582 168.816 140.629 169.01 140.652 169.256C140.688 169.502 140.705 169.801 140.705 170.152ZM153.66 182.369V190.367C153.66 190.484 153.619 190.59 153.537 190.684C153.467 190.777 153.344 190.854 153.168 190.912C152.992 190.971 152.752 191.018 152.447 191.053C152.154 191.088 151.785 191.105 151.34 191.105C150.883 191.105 150.508 191.088 150.215 191.053C149.922 191.018 149.682 190.971 149.494 190.912C149.318 190.854 149.195 190.777 149.125 190.684C149.055 190.59 149.02 190.484 149.02 190.367V182.369L142.797 169.977C142.574 169.543 142.428 169.209 142.357 168.975C142.299 168.729 142.334 168.547 142.463 168.43C142.604 168.301 142.855 168.225 143.219 168.201C143.582 168.166 144.086 168.148 144.73 168.148C145.27 168.148 145.697 168.16 146.014 168.184C146.342 168.207 146.6 168.254 146.787 168.324C146.975 168.383 147.109 168.465 147.191 168.57C147.285 168.676 147.373 168.811 147.455 168.975L149.986 174.564C150.232 175.104 150.473 175.672 150.707 176.27C150.953 176.867 151.199 177.494 151.445 178.15H151.48C151.703 177.518 151.932 176.902 152.166 176.305C152.4 175.707 152.629 175.139 152.852 174.6L155.348 169.045C155.406 168.857 155.477 168.711 155.559 168.605C155.652 168.488 155.787 168.395 155.963 168.324C156.139 168.254 156.379 168.207 156.684 168.184C156.988 168.16 157.393 168.148 157.896 168.148C158.564 168.148 159.08 168.166 159.443 168.201C159.818 168.225 160.07 168.301 160.199 168.43C160.34 168.547 160.375 168.729 160.305 168.975C160.234 169.221 160.094 169.555 159.883 169.977L153.66 182.369Z" fill="#932F67"/>
</g>
<defs>
<clipPath id="clip0_108_1516">
<rect width="210" height="202" fill="white"/>
</clipPath>
</defs>
</svg>
