<svg width="159" height="153" viewBox="0 0 159 153" fill="none" xmlns="http://www.w3.org/2000/svg">
<path fill-rule="evenodd" clip-rule="evenodd" d="M123.343 76.2724H94.2553C95.2939 74.0807 95.875 71.6295 95.875 69.0424C95.875 59.7138 88.3198 52.1515 79 52.1515C69.6802 52.1515 62.125 59.7138 62.125 69.0424C62.125 71.6295 62.7061 74.0807 63.7447 76.2724H34.6566C34.2298 73.8706 34 71.4565 34 69.0424C34 57.0964 38.7411 45.6397 47.1802 37.1926C55.6193 28.7455 67.0653 24 79 24C90.9347 24 102.381 28.7455 110.82 37.1926C119.259 45.6397 124 57.0964 124 69.0424C124 71.4565 123.77 73.8706 123.343 76.2724Z" fill="#DDDEAB"/>
<path d="M58.6298 107.117C57.2134 107.117 56.0653 105.969 56.0653 104.553C56.0653 103.138 57.2134 101.99 58.6298 101.99H69.4181L69.4181 99.0252H47.3458C45.9295 99.0252 44.7813 97.8774 44.7813 96.4615C44.7813 95.0455 45.9295 93.8977 47.3458 93.8977H69.4181L69.4181 87.1035H37.8556C44.7984 104.174 59.5932 119.585 69.4181 128.523L69.4181 107.117H58.6298Z" fill="#DDDEAB"/>
<path d="M88.0553 87.1035L88.0553 109.28H103.766C104.627 109.28 105.39 109.705 105.855 110.357C111.495 103.375 116.755 95.4368 120.144 87.1035H88.0553Z" fill="#DDDEAB"/>
<path d="M88.0554 114.408L88.0554 129C92.2274 125.234 97.3733 120.24 102.454 114.408H88.0554Z" fill="#DDDEAB"/>
</svg>
