<svg width="233" height="233" viewBox="0 0 233 233" fill="none" xmlns="http://www.w3.org/2000/svg">
<rect width="233" height="233" fill="#932F67"/>
<path d="M177.333 94.6667C177.333 140.667 116 186.667 116 186.667C116 186.667 54.6666 140.667 54.6666 94.6667C54.6666 78.4001 61.1285 62.7997 72.6307 51.2975C84.133 39.7952 99.7333 33.3333 116 33.3333C132.267 33.3333 147.867 39.7952 159.369 51.2975C170.871 62.7997 177.333 78.4001 177.333 94.6667Z" fill="#DDDEAB" stroke="#DDDEAB" stroke-width="2" stroke-linecap="round" stroke-linejoin="round"/>
<path d="M116 117.667C128.703 117.667 139 107.369 139 94.6667C139 81.9641 128.703 71.6667 116 71.6667C103.297 71.6667 93 81.9641 93 94.6667C93 107.369 103.297 117.667 116 117.667Z" fill="#932F67" stroke="#932F67" stroke-width="2" stroke-linecap="round" stroke-linejoin="round"/>
<path d="M128.342 210.49C128.342 217.496 122.656 223.175 115.641 223.175C108.627 223.175 102.94 217.496 102.94 210.49L102.94 119.26H51.1382C44.9867 119.26 40 114.28 40 108.136C40 101.992 44.9867 104.512 51.1382 104.512H179.862C186.013 104.512 191 101.992 191 108.136C191 114.28 186.013 119.26 179.862 119.26H128.342L128.342 210.49Z" fill="#932F67"/>
<path d="M126.685 210.607C126.685 218.986 115.5 227.364 115.5 227.364C115.5 227.364 104.315 218.986 104.315 210.607C104.315 207.645 105.493 204.803 107.591 202.708C109.689 200.613 112.534 199.436 115.5 199.436C118.467 199.436 121.312 200.613 123.409 202.708C125.507 204.803 126.685 207.645 126.685 210.607Z" fill="#932F67"/>
<path d="M116.338 228.481C115.841 228.853 115.159 228.853 114.662 228.481L115.5 227.364L116.338 228.481ZM125.287 210.607C125.287 208.015 124.257 205.528 122.421 203.695C120.7 201.976 118.404 200.965 115.985 200.845L115.5 200.833C112.904 200.833 110.414 201.862 108.579 203.695C106.744 205.528 105.713 208.015 105.713 210.607C105.713 214.245 108.188 218.095 110.952 221.2C112.301 222.716 113.655 223.983 114.673 224.873C114.984 225.145 115.264 225.379 115.5 225.575C115.737 225.379 116.017 225.145 116.327 224.873C117.345 223.983 118.699 222.716 120.048 221.2C122.812 218.095 125.287 214.245 125.287 210.607ZM128.083 210.607C128.083 215.348 124.966 219.877 122.137 223.055C120.69 224.681 119.247 226.032 118.168 226.976C117.628 227.448 117.175 227.82 116.856 228.076C116.696 228.204 116.57 228.304 116.482 228.372C116.438 228.406 116.403 228.433 116.379 228.451C116.367 228.46 116.357 228.467 116.351 228.472C116.347 228.474 116.345 228.477 116.342 228.478L116.338 228.481C116.338 228.481 116.339 228.481 115.5 227.364C114.661 228.481 114.662 228.481 114.662 228.481L114.658 228.478C114.656 228.477 114.653 228.474 114.649 228.472C114.643 228.467 114.633 228.46 114.621 228.451C114.597 228.433 114.562 228.406 114.518 228.372C114.43 228.304 114.304 228.204 114.144 228.076C113.825 227.82 113.373 227.448 112.832 226.976C111.753 226.032 110.31 224.681 108.863 223.055C106.034 219.877 102.917 215.348 102.917 210.607C102.917 207.274 104.242 204.077 106.602 201.72C108.962 199.363 112.163 198.04 115.5 198.04C118.837 198.04 122.038 199.363 124.398 201.72C126.758 204.077 128.083 207.274 128.083 210.607Z" fill="#932F67"/>
<path d="M115.5 214.797C117.817 214.797 119.694 212.921 119.694 210.607C119.694 208.294 117.817 206.418 115.5 206.418C113.184 206.418 111.306 208.294 111.306 210.607C111.306 212.921 113.184 214.797 115.5 214.797Z" fill="#932F67"/>
<path d="M118.296 210.607C118.296 209.065 117.044 207.815 115.5 207.815C113.956 207.815 112.704 209.065 112.704 210.607C112.704 212.15 113.956 213.4 115.5 213.4C117.044 213.4 118.296 212.15 118.296 210.607ZM121.093 210.607C121.093 213.692 118.589 216.193 115.5 216.193C112.411 216.193 109.907 213.692 109.907 210.607C109.907 207.523 112.411 205.022 115.5 205.022C118.589 205.022 121.093 207.523 121.093 210.607Z" fill="#932F67"/>
<path d="M84.7408 143.021C84.7408 141.093 86.3057 139.53 88.2362 139.53H118.995C120.926 139.53 122.491 141.093 122.491 143.021C122.491 144.949 120.926 146.512 118.995 146.512H88.2362C86.3057 146.512 84.7408 144.949 84.7408 143.021Z" fill="#932F67"/>
<path d="M115.5 152.948C115.5 151.02 117.065 149.457 118.995 149.457H149.755C151.685 149.457 153.25 151.02 153.25 152.948C153.25 154.876 151.685 156.439 149.755 156.439H118.995C117.065 156.439 115.5 154.876 115.5 152.948Z" fill="#932F67"/>
<path d="M69.3612 132.003C69.3612 130.075 70.9261 128.512 72.8565 128.512H106.412C108.343 128.512 109.907 130.075 109.907 132.003C109.907 133.931 108.343 135.494 106.412 135.494H72.8565C70.9261 135.494 69.3612 133.931 69.3612 132.003Z" fill="#932F67"/>
<path d="M77.6133 197.152C77.6133 197.492 77.5957 197.785 77.5605 198.031C77.5371 198.266 77.4961 198.459 77.4375 198.611C77.3789 198.752 77.3027 198.857 77.209 198.928C77.127 198.998 77.0332 199.033 76.9277 199.033H71.2324V217.367C71.2324 217.484 71.1914 217.59 71.1094 217.684C71.0391 217.777 70.916 217.854 70.7402 217.912C70.5645 217.971 70.3242 218.018 70.0195 218.053C69.7266 218.088 69.3574 218.105 68.9121 218.105C68.4668 218.105 68.0918 218.088 67.7871 218.053C67.4941 218.018 67.2598 217.971 67.084 217.912C66.9082 217.854 66.7793 217.777 66.6973 217.684C66.627 217.59 66.5918 217.484 66.5918 217.367V199.033H60.8965C60.7793 199.033 60.6797 198.998 60.5977 198.928C60.5156 198.857 60.4453 198.752 60.3867 198.611C60.3281 198.459 60.2812 198.266 60.2461 198.031C60.2227 197.785 60.2109 197.492 60.2109 197.152C60.2109 196.801 60.2227 196.502 60.2461 196.256C60.2812 196.01 60.3281 195.816 60.3867 195.676C60.4453 195.523 60.5156 195.418 60.5977 195.359C60.6797 195.289 60.7793 195.254 60.8965 195.254H76.9277C77.0332 195.254 77.127 195.289 77.209 195.359C77.3027 195.418 77.3789 195.523 77.4375 195.676C77.4961 195.816 77.5371 196.01 77.5605 196.256C77.5957 196.502 77.6133 196.801 77.6133 197.152ZM97.1777 217.402C97.1777 217.531 97.1543 217.643 97.1074 217.736C97.0605 217.818 96.9492 217.889 96.7734 217.947C96.5977 218.006 96.3398 218.047 96 218.07C95.6602 218.094 95.1973 218.105 94.6113 218.105C94.1191 218.105 93.7266 218.094 93.4336 218.07C93.1406 218.047 92.9062 218.006 92.7305 217.947C92.5664 217.877 92.4492 217.795 92.3789 217.701C92.3086 217.596 92.25 217.473 92.2031 217.332L90.1641 212.252C89.918 211.678 89.6777 211.168 89.4434 210.723C89.209 210.277 88.9453 209.908 88.6523 209.615C88.3711 209.311 88.043 209.082 87.668 208.93C87.293 208.777 86.8594 208.701 86.3672 208.701H84.9258V217.367C84.9258 217.484 84.8848 217.59 84.8027 217.684C84.7324 217.777 84.6094 217.854 84.4336 217.912C84.2578 217.971 84.0234 218.018 83.7305 218.053C83.4375 218.088 83.0625 218.105 82.6055 218.105C82.1602 218.105 81.7852 218.088 81.4805 218.053C81.1875 218.018 80.9531 217.971 80.7773 217.912C80.6016 217.854 80.4785 217.777 80.4082 217.684C80.3379 217.59 80.3027 217.484 80.3027 217.367V196.713C80.3027 196.197 80.4316 195.828 80.6895 195.605C80.959 195.371 81.2871 195.254 81.6738 195.254H87.5625C88.1602 195.254 88.6523 195.266 89.0391 195.289C89.4258 195.312 89.7773 195.342 90.0938 195.377C91.0078 195.506 91.8281 195.729 92.5547 196.045C93.293 196.361 93.9141 196.777 94.418 197.293C94.9336 197.797 95.3262 198.4 95.5957 199.104C95.8652 199.795 96 200.592 96 201.494C96 202.256 95.9004 202.953 95.7012 203.586C95.5137 204.207 95.2324 204.764 94.8574 205.256C94.4824 205.748 94.0195 206.176 93.4688 206.539C92.918 206.902 92.291 207.195 91.5879 207.418C91.9277 207.582 92.2441 207.781 92.5371 208.016C92.8418 208.25 93.123 208.537 93.3809 208.877C93.6504 209.205 93.9023 209.586 94.1367 210.02C94.3711 210.441 94.5996 210.922 94.8223 211.461L96.7383 215.943C96.9141 216.389 97.0312 216.717 97.0898 216.928C97.1484 217.127 97.1777 217.285 97.1777 217.402ZM91.2188 201.969C91.2188 201.219 91.0488 200.586 90.709 200.07C90.3691 199.555 89.8125 199.191 89.0391 198.98C88.8047 198.922 88.5352 198.875 88.2305 198.84C87.9375 198.805 87.5273 198.787 87 198.787H84.9258V205.238H87.2812C87.9375 205.238 88.5117 205.162 89.0039 205.01C89.4961 204.846 89.9062 204.623 90.2344 204.342C90.5625 204.049 90.8086 203.703 90.9727 203.305C91.1367 202.906 91.2188 202.461 91.2188 201.969ZM105.229 217.367C105.229 217.484 105.188 217.59 105.105 217.684C105.035 217.777 104.912 217.854 104.736 217.912C104.561 217.971 104.326 218.018 104.033 218.053C103.74 218.088 103.365 218.105 102.908 218.105C102.463 218.105 102.088 218.088 101.783 218.053C101.49 218.018 101.256 217.971 101.08 217.912C100.904 217.854 100.775 217.777 100.693 217.684C100.623 217.59 100.588 217.484 100.588 217.367V195.887C100.588 195.77 100.623 195.664 100.693 195.57C100.775 195.477 100.904 195.4 101.08 195.342C101.268 195.283 101.508 195.236 101.801 195.201C102.094 195.166 102.463 195.148 102.908 195.148C103.365 195.148 103.74 195.166 104.033 195.201C104.326 195.236 104.561 195.283 104.736 195.342C104.912 195.4 105.035 195.477 105.105 195.57C105.188 195.664 105.229 195.77 105.229 195.887V217.367ZM125.76 202.162C125.76 203.439 125.561 204.57 125.162 205.555C124.764 206.539 124.184 207.371 123.422 208.051C122.66 208.719 121.723 209.229 120.609 209.58C119.508 209.932 118.207 210.107 116.707 210.107H114.809V217.367C114.809 217.484 114.768 217.59 114.686 217.684C114.615 217.777 114.492 217.854 114.316 217.912C114.141 217.971 113.906 218.018 113.613 218.053C113.32 218.088 112.945 218.105 112.488 218.105C112.043 218.105 111.668 218.088 111.363 218.053C111.07 218.018 110.836 217.971 110.66 217.912C110.484 217.854 110.361 217.777 110.291 217.684C110.221 217.59 110.186 217.484 110.186 217.367V196.906C110.186 196.355 110.326 195.945 110.607 195.676C110.9 195.395 111.281 195.254 111.75 195.254H117.111C117.65 195.254 118.16 195.277 118.641 195.324C119.133 195.359 119.719 195.447 120.398 195.588C121.078 195.717 121.764 195.963 122.455 196.326C123.158 196.689 123.756 197.152 124.248 197.715C124.74 198.266 125.115 198.916 125.373 199.666C125.631 200.404 125.76 201.236 125.76 202.162ZM120.926 202.496C120.926 201.699 120.785 201.043 120.504 200.527C120.223 200.012 119.877 199.631 119.467 199.385C119.057 199.139 118.623 198.986 118.166 198.928C117.721 198.857 117.258 198.822 116.777 198.822H114.809V206.539H116.883C117.621 206.539 118.236 206.439 118.729 206.24C119.232 206.041 119.643 205.766 119.959 205.414C120.275 205.051 120.516 204.623 120.68 204.131C120.844 203.627 120.926 203.082 120.926 202.496ZM133.986 217.367C133.986 217.484 133.945 217.59 133.863 217.684C133.793 217.777 133.67 217.854 133.494 217.912C133.318 217.971 133.084 218.018 132.791 218.053C132.498 218.088 132.123 218.105 131.666 218.105C131.221 218.105 130.846 218.088 130.541 218.053C130.248 218.018 130.014 217.971 129.838 217.912C129.662 217.854 129.533 217.777 129.451 217.684C129.381 217.59 129.346 217.484 129.346 217.367V195.887C129.346 195.77 129.381 195.664 129.451 195.57C129.533 195.477 129.662 195.4 129.838 195.342C130.025 195.283 130.266 195.236 130.559 195.201C130.852 195.166 131.221 195.148 131.666 195.148C132.123 195.148 132.498 195.166 132.791 195.201C133.084 195.236 133.318 195.283 133.494 195.342C133.67 195.4 133.793 195.477 133.863 195.57C133.945 195.664 133.986 195.77 133.986 195.887V217.367ZM151.705 197.152C151.705 197.504 151.688 197.803 151.652 198.049C151.629 198.283 151.582 198.471 151.512 198.611C151.453 198.752 151.383 198.857 151.301 198.928C151.219 198.998 151.125 199.033 151.02 199.033H143.584V205.15H150.562C150.668 205.15 150.762 205.18 150.844 205.238C150.926 205.297 150.996 205.396 151.055 205.537C151.125 205.678 151.172 205.865 151.195 206.1C151.23 206.334 151.248 206.627 151.248 206.979C151.248 207.33 151.23 207.623 151.195 207.857C151.172 208.092 151.125 208.285 151.055 208.438C150.996 208.59 150.926 208.701 150.844 208.771C150.762 208.83 150.668 208.859 150.562 208.859H143.584V217.332C143.584 217.461 143.549 217.572 143.479 217.666C143.408 217.76 143.279 217.842 143.092 217.912C142.916 217.971 142.682 218.018 142.389 218.053C142.096 218.088 141.721 218.105 141.264 218.105C140.818 218.105 140.443 218.088 140.139 218.053C139.846 218.018 139.611 217.971 139.436 217.912C139.26 217.842 139.131 217.76 139.049 217.666C138.979 217.572 138.943 217.461 138.943 217.332V196.713C138.943 196.197 139.072 195.828 139.33 195.605C139.6 195.371 139.928 195.254 140.314 195.254H151.02C151.125 195.254 151.219 195.289 151.301 195.359C151.383 195.418 151.453 195.523 151.512 195.676C151.582 195.816 151.629 196.01 151.652 196.256C151.688 196.502 151.705 196.801 151.705 197.152ZM164.66 209.369V217.367C164.66 217.484 164.619 217.59 164.537 217.684C164.467 217.777 164.344 217.854 164.168 217.912C163.992 217.971 163.752 218.018 163.447 218.053C163.154 218.088 162.785 218.105 162.34 218.105C161.883 218.105 161.508 218.088 161.215 218.053C160.922 218.018 160.682 217.971 160.494 217.912C160.318 217.854 160.195 217.777 160.125 217.684C160.055 217.59 160.02 217.484 160.02 217.367V209.369L153.797 196.977C153.574 196.543 153.428 196.209 153.357 195.975C153.299 195.729 153.334 195.547 153.463 195.43C153.604 195.301 153.855 195.225 154.219 195.201C154.582 195.166 155.086 195.148 155.73 195.148C156.27 195.148 156.697 195.16 157.014 195.184C157.342 195.207 157.6 195.254 157.787 195.324C157.975 195.383 158.109 195.465 158.191 195.57C158.285 195.676 158.373 195.811 158.455 195.975L160.986 201.564C161.232 202.104 161.473 202.672 161.707 203.27C161.953 203.867 162.199 204.494 162.445 205.15H162.48C162.703 204.518 162.932 203.902 163.166 203.305C163.4 202.707 163.629 202.139 163.852 201.6L166.348 196.045C166.406 195.857 166.477 195.711 166.559 195.605C166.652 195.488 166.787 195.395 166.963 195.324C167.139 195.254 167.379 195.207 167.684 195.184C167.988 195.16 168.393 195.148 168.896 195.148C169.564 195.148 170.08 195.166 170.443 195.201C170.818 195.225 171.07 195.301 171.199 195.43C171.34 195.547 171.375 195.729 171.305 195.975C171.234 196.221 171.094 196.555 170.883 196.977L164.66 209.369Z" fill="#DDDEAB"/>
</svg>
